<svg width="244" height="244" viewBox="0 0 244 244" fill="none" xmlns="http://www.w3.org/2000/svg">
<rect width="244" height="244" rx="44" fill="#252940"/>
<path fill-rule="evenodd" clip-rule="evenodd" d="M73.3825 155.322H48.6754C43.7544 155.304 39.8161 152.581 37.1461 148.319C34.4761 144.057 34.2165 138.817 36.4656 134.574L48.6829 111.52L73.3825 155.322ZM87.9304 38.7479L91.2068 32.5684C93.5097 28.2199 98.0821 25.6022 103.126 25.741C108.171 25.8799 112.88 28.7549 115.408 33.2349L176.753 142.021C178.355 144.861 178.4 148.251 176.87 150.968C175.341 153.684 172.459 155.333 169.264 155.322H153.639L87.9304 38.7479Z" fill="white"/>
<path fill-rule="evenodd" clip-rule="evenodd" d="M156.07 205.252L152.795 211.432C150.49 215.78 145.918 218.398 140.874 218.259C135.829 218.12 131.12 215.245 128.592 210.765L67.2465 101.979C65.6445 99.1392 65.6019 95.7496 67.1297 93.032C68.6594 90.3162 71.5408 88.6667 74.7356 88.6779H90.3608L156.07 205.252ZM170.617 88.6779H195.325C200.246 88.6964 204.184 91.4195 206.854 95.6811C209.524 99.9426 209.783 105.183 207.534 109.427L195.319 132.48L170.617 88.6779Z" fill="#3AADDD"/>
</svg>
