<svg width="216" height="216" viewBox="0 0 216 216" fill="none" xmlns="http://www.w3.org/2000/svg">
<rect width="216" height="216" rx="108" fill="#252940"/>
<path fill-rule="evenodd" clip-rule="evenodd" d="M59.4995 141.586H34.753C29.8242 141.568 25.8796 138.845 23.2053 134.583C20.531 130.322 20.271 125.081 22.5237 120.838L34.7605 97.7843L59.4995 141.586ZM74.0707 25.0121L77.3523 18.8326C79.6589 14.4841 84.2386 11.8664 89.2901 12.0053C94.3434 12.1441 99.0605 15.0191 101.592 19.4991L163.036 128.285C164.64 131.125 164.685 134.515 163.153 137.232C161.62 139.948 158.734 141.598 155.535 141.586H139.884L74.0707 25.0121Z" fill="white"/>
<path fill-rule="evenodd" clip-rule="evenodd" d="M142.319 191.516L139.039 197.696C136.731 202.044 132.151 204.662 127.099 204.523C122.046 204.384 117.329 201.509 114.798 197.029L53.354 88.2432C51.7494 85.4034 51.7067 82.0138 53.237 79.2962C54.7691 76.5804 57.6551 74.931 60.855 74.9421H76.5052L142.319 191.516ZM156.89 74.9421H181.637C186.565 74.9606 190.51 77.6838 193.184 81.9453C195.859 86.2069 196.119 91.4477 193.866 95.6907L181.631 118.744L156.89 74.9421Z" fill="#3AADDD"/>
</svg>
